<?xml version="1.0" encoding="UTF-8" standalone="no"?>
<!-- Generator: Adobe Illustrator 15.1.0, SVG Export Plug-In . SVG Version: 6.00 Build 0)  -->

<svg
   xmlns:dc="http://purl.org/dc/elements/1.1/"
   xmlns:cc="http://creativecommons.org/ns#"
   xmlns:rdf="http://www.w3.org/1999/02/22-rdf-syntax-ns#"
   xmlns:svg="http://www.w3.org/2000/svg"
   xmlns="http://www.w3.org/2000/svg"
   xmlns:sodipodi="http://sodipodi.sourceforge.net/DTD/sodipodi-0.dtd"
   xmlns:inkscape="http://www.inkscape.org/namespaces/inkscape"
   version="1.1"
   id="Layer_1"
   x="0px"
   y="0px"
   width="100px"
   height="100px"
   viewBox="0 0 100 100"
   enable-background="new 0 0 100 100"
   xml:space="preserve"
   sodipodi:docname="1.svg"
   inkscape:version="0.92.4 (5da689c313, 2019-01-14)"><metadata
   id="metadata3729"><rdf:RDF><cc:Work
       rdf:about=""><dc:format>image/svg+xml</dc:format><dc:type
         rdf:resource="http://purl.org/dc/dcmitype/StillImage" /><dc:title></dc:title></cc:Work></rdf:RDF></metadata><defs
   id="defs3727" /><sodipodi:namedview
   pagecolor="#ffffff"
   bordercolor="#666666"
   borderopacity="1"
   objecttolerance="10"
   gridtolerance="10"
   guidetolerance="10"
   inkscape:pageopacity="0"
   inkscape:pageshadow="2"
   inkscape:window-width="2736"
   inkscape:window-height="1699"
   id="namedview3725"
   showgrid="false"
   inkscape:zoom="13.92"
   inkscape:cx="50"
   inkscape:cy="41.37931"
   inkscape:window-x="-13"
   inkscape:window-y="-13"
   inkscape:window-maximized="1"
   inkscape:current-layer="Layer_1" />
<path
   fill-rule="evenodd"
   clip-rule="evenodd"
   d="M71.997,51.999h-3.998c-1.105,0-2-0.895-2-1.999s0.895-2,2-2h3.998  c1.105,0,2,0.896,2,2S73.103,51.999,71.997,51.999z M64.142,38.688c-0.781,0.781-2.049,0.781-2.828,0  c-0.781-0.781-0.781-2.047,0-2.828l2.828-2.828c0.779-0.781,2.047-0.781,2.828,0c0.779,0.781,0.779,2.047,0,2.828L64.142,38.688z   M50.001,61.998c-6.627,0-12-5.372-12-11.998c0-6.627,5.372-11.999,12-11.999c6.627,0,11.998,5.372,11.998,11.999  C61.999,56.626,56.628,61.998,50.001,61.998z M50.001,42.001c-4.418,0-8,3.581-8,7.999c0,4.417,3.583,7.999,8,7.999  s7.998-3.582,7.998-7.999C57.999,45.582,54.419,42.001,50.001,42.001z M50.001,34.002c-1.105,0-2-0.896-2-2v-3.999  c0-1.104,0.895-2,2-2c1.104,0,2,0.896,2,2v3.999C52.001,33.106,51.104,34.002,50.001,34.002z M35.86,38.688l-2.828-2.828  c-0.781-0.781-0.781-2.047,0-2.828s2.047-0.781,2.828,0l2.828,2.828c0.781,0.781,0.781,2.047,0,2.828S36.641,39.469,35.86,38.688z   M34.002,50c0,1.104-0.896,1.999-2,1.999h-4c-1.104,0-1.999-0.895-1.999-1.999s0.896-2,1.999-2h4C33.107,48,34.002,48.896,34.002,50  z M35.86,61.312c0.781-0.78,2.047-0.78,2.828,0c0.781,0.781,0.781,2.048,0,2.828l-2.828,2.828c-0.781,0.781-2.047,0.781-2.828,0  c-0.781-0.78-0.781-2.047,0-2.828L35.86,61.312z M50.001,65.998c1.104,0,2,0.895,2,1.999v4c0,1.104-0.896,2-2,2  c-1.105,0-2-0.896-2-2v-4C48.001,66.893,48.896,65.998,50.001,65.998z M64.142,61.312l2.828,2.828c0.779,0.781,0.779,2.048,0,2.828  c-0.781,0.781-2.049,0.781-2.828,0l-2.828-2.828c-0.781-0.78-0.781-2.047,0-2.828C62.093,60.531,63.36,60.531,64.142,61.312z"
   id="path3722" />
<path
   style="stroke-width:0.07183908;fill:#ffffff"
   d="m 27.378529,51.858593 c -0.428652,-0.134392 -0.939119,-0.588412 -1.14704,-1.020203 -0.252415,-0.524192 -0.236385,-1.226996 0.03949,-1.731545 0.228422,-0.417758 0.470295,-0.651631 0.926111,-0.89548 0.28439,-0.152141 0.38459,-0.159066 2.614529,-0.180681 1.943246,-0.01884 2.381704,-0.0042 2.707153,0.09042 1.714782,0.4985 1.948986,2.784677 0.370574,3.617344 l -0.367797,0.194025 -2.406609,0.01476 c -1.925424,0.01181 -2.472552,-0.0059 -2.736414,-0.08864 z"
   id="path3731"
   inkscape:connector-curvature="0" /><path
   style="fill:#ffffff;stroke-width:0.07183908"
   d="m 36.819826,39.183959 c -0.125173,-0.02981 -0.36763,-0.137523 -0.538793,-0.239352 -0.450063,-0.267752 -3.388272,-3.24709 -3.592594,-3.642883 -0.131351,-0.254438 -0.166735,-0.438005 -0.166174,-0.862069 6.13e-4,-0.46247 0.03114,-0.594146 0.215518,-0.929548 0.35362,-0.643279 0.959956,-0.996178 1.723424,-1.003064 0.738079,-0.0067 0.899218,0.108458 2.784961,1.989527 1.484165,1.480487 1.726001,1.752801 1.849856,2.082993 0.287849,0.767392 0.127007,1.476892 -0.470192,2.074091 -0.513085,0.513084 -1.124523,0.692623 -1.806006,0.530305 z"
   id="path3733"
   inkscape:connector-curvature="0" /><path
   style="fill:#ffffff;stroke-width:0.07183908"
   d="m 49.188218,33.767755 c -0.399679,-0.186515 -0.82889,-0.62057 -1.021152,-1.032678 -0.112824,-0.241834 -0.126528,-0.533845 -0.127351,-2.713525 l -9.22e-4,-2.442529 0.201228,-0.409777 c 0.214918,-0.437655 0.465248,-0.687758 0.93983,-0.938974 0.414736,-0.219538 1.252735,-0.221004 1.660666,-0.0029 0.409075,0.218709 0.749646,0.576727 0.944097,0.992463 0.165436,0.353702 0.168016,0.395529 0.168707,2.735047 7.83e-4,2.64782 -0.02,2.794537 -0.470322,3.320638 -0.550612,0.643267 -1.523813,0.852024 -2.294781,0.492242 z"
   id="path3735"
   inkscape:connector-curvature="0" /><path
   style="fill:#ffffff;stroke-width:0.07183908"
   d="m 62.167623,39.150483 c -0.634509,-0.206631 -1.097048,-0.663974 -1.302247,-1.287618 -0.118472,-0.360058 -0.06758,-1.082041 0.102049,-1.447635 0.18066,-0.389379 3.347506,-3.556658 3.738035,-3.738546 0.451733,-0.210394 1.155175,-0.224561 1.602177,-0.03227 0.414467,0.178299 0.898706,0.658024 1.07323,1.063225 0.17116,0.397389 0.15101,1.122556 -0.04325,1.556506 -0.227691,0.508631 -3.268654,3.553716 -3.770671,3.775782 -0.442157,0.195587 -1.00231,0.239842 -1.399323,0.110552 z"
   id="path3737"
   inkscape:connector-curvature="0" /><path
   style="fill:#ffffff;stroke-width:0.07183908"
   d="m 67.296309,51.825069 c -0.714114,-0.2825 -1.261826,-1.073429 -1.261826,-1.82215 0,-0.709426 0.476267,-1.45903 1.132274,-1.782103 0.33672,-0.165829 0.367418,-0.167655 2.818875,-0.167655 2.377384,0 2.491631,0.0062 2.801724,0.152597 1.47203,0.694849 1.547881,2.729988 0.131002,3.514863 l -0.382438,0.21185 -2.442529,0.01643 c -2.27601,0.01531 -2.466701,0.0069 -2.797082,-0.123832 z"
   id="path3739"
   inkscape:connector-curvature="0" /><path
   style="fill:#ffffff;stroke-width:0.07183908"
   d="m 64.70546,67.313715 c -0.502297,-0.255311 -3.559629,-3.323542 -3.765808,-3.779232 -0.333379,-0.736827 -0.123103,-1.695802 0.49379,-2.251952 0.417473,-0.376366 0.741103,-0.501659 1.296443,-0.501914 0.766945,-3.53e-4 0.92049,0.110333 2.851159,2.055308 1.884414,1.898377 1.922943,1.953552 1.917561,2.745972 -0.0048,0.700815 -0.314912,1.2331 -0.971795,1.667805 -0.2384,0.157766 -0.388449,0.195238 -0.874951,0.218505 -0.518989,0.02482 -0.628931,0.0069 -0.946399,-0.154492 z"
   id="path3741"
   inkscape:connector-curvature="0" /><path
   style="fill:#ffffff;stroke-width:0.07183908"
   d="M 49.319269,73.83351 C 48.887352,73.680465 48.411274,73.230915 48.210442,72.786471 48.040445,72.410265 48.038793,72.38345 48.038793,70 c 0,-2.359663 0.0032,-2.413616 0.165318,-2.765805 0.326312,-0.708996 0.884952,-1.107675 1.636657,-1.168014 0.596172,-0.04785 1.085821,0.119927 1.485291,0.508947 0.593859,0.578324 0.589312,0.553713 0.612841,3.317113 0.02279,2.676705 0.01576,2.733218 -0.414112,3.326633 -0.294884,0.407075 -0.971804,0.734119 -1.503935,0.726604 -0.22088,-0.0031 -0.536593,-0.05351 -0.701584,-0.111968 z"
   id="path3743"
   inkscape:connector-curvature="0" /><path
   style="fill:#ffffff;stroke-width:0.07183908"
   d="m 33.581348,67.304316 c -0.973751,-0.492219 -1.365016,-1.659283 -0.88025,-2.625609 0.10075,-0.200832 0.745824,-0.908348 1.750067,-1.91947 1.800022,-1.81235 2.041496,-1.982845 2.804107,-1.979864 1.473883,0.0058 2.423597,1.527701 1.767303,2.832149 -0.212634,0.422633 -3.301845,3.51051 -3.699299,3.697703 -0.17644,0.0831 -0.495324,0.14505 -0.82615,0.160496 -0.469638,0.02193 -0.587179,6.97e-4 -0.915778,-0.165405 z"
   id="path3745"
   inkscape:connector-curvature="0" /><path
   style="fill:#ffffff;stroke-width:0.07183908"
   d="M 48.352068,61.849421 C 43.910799,61.213368 40.17913,58.148366 38.7111,53.930824 c -1.447108,-4.157435 -0.509443,-8.731417 2.456715,-11.983985 1.634286,-1.792092 3.887969,-3.102257 6.225153,-3.618957 2.151375,-0.475621 4.27724,-0.367531 6.357032,0.323226 4.078505,1.354584 7.066606,4.715596 7.975668,8.971018 0.111294,0.52098 0.164025,1.083601 0.191892,2.047414 0.04254,1.471178 -0.06988,2.405242 -0.44525,3.699713 -0.907956,3.131066 -3.174523,5.838636 -6.105931,7.293955 -1.789191,0.888256 -3.122426,1.217465 -5.100574,1.259459 -0.792663,0.01683 -1.464288,-0.0089 -1.913737,-0.07325 z m 3.688579,-4.083629 c 3.521859,-0.929722 5.964606,-4.096291 5.968502,-7.737056 0.0024,-2.216876 -0.799677,-4.166176 -2.351139,-5.714199 -1.452512,-1.449294 -3.260401,-2.229147 -5.356286,-2.310496 -2.380897,-0.09241 -4.473488,0.754304 -6.114833,2.474213 -2.952547,3.093874 -2.95824,7.907457 -0.01302,11.009603 1.195801,1.259515 2.711745,2.103277 4.325315,2.407433 0.884904,0.166802 2.665723,0.101685 3.541462,-0.129498 z"
   id="path3747"
   inkscape:connector-curvature="0" /></svg>